<svg id="圖層_1" data-name="圖層 1" xmlns="http://www.w3.org/2000/svg" viewBox="0 0 852.68 536.37"><defs><style>.cls-1{fill:#f5d79a;stroke:#684929;stroke-miterlimit:10;}</style></defs><title>header_logo</title><path class="cls-1" d="M513.37,92.74c-7,13.28-9,27.92-12.49,42-8,32.84-16.33,65.56-25.69,98-5.64,19.59-9.25,39.75-14.3,59.52-4.77,18.69-11,37-15.21,55.83-5.62,25.29-12.25,50.29-19,75.26-1.2,4.44-2.19,8.94-3.61,13.31-1.24,3.82-2.75,7.26-8.12,6.86-5-.38-8-2-9.28-7.29C395.24,394.54,385,352.74,374,311.13c-12.72-48.18-23.75-96.78-37-144.82-6.72-24.34-11.3-49.24-18.73-73.41-.38-1.23-.36-2.66-3.51-4.49,0,7.63,0,14.25,0,20.88,0,17.37-.66,34.76.1,52.09,1.64,37.07-.46,74.15.55,111.18.41,14.85.63,29.69.9,44.54.43,23.76-4.18,46.31-11.54,69-6.8,21-20.51,35.89-36.79,48-12.18,9.07-27.38,14.56-42.61,18.38-17.22,4.31-34.51,8.34-51.74,12.54-20.92,5.09-39.13,16.08-52.29,33.37a64.28,64.28,0,0,0-12.5,29.41,29.25,29.25,0,0,1-1,5.15c-1.16,3.39-3,4.91-6,1.55-17.74-19.7-29.39-46.7-9.61-73.06,3.19-4.25,3.07-6.51-3-6.61-7.4-.13-14.2-2.72-20.71-5.92-8.6-4.23-14.9-10.52-17-20.34-1.09-5.15-2.28-10.3-3.78-15.35-2.38-8-7.24-13.31-15.51-16.42a51.53,51.53,0,0,1-26.05-21c-9-14.42-7.51-29.66-.21-44,6.79-13.32,8.19-26.91,7.25-41.48-1.05-16.16,7.58-28,19.92-37.23,8.39-6.28,18.2-9.72,28.47-11.53,4.3-.76,7.2-2.66,9.18-6.52,1.7-3.32,3.81-6.42,5.75-9.61C87.14,208,99.84,202.56,120,206.35c13.31,2.5,25.42,8.38,38.06,12.78,4.77,1.66,9.5,3.5,14.37,4.74,10.27,2.62,16.47-1,19.55-11.16,2.48-8.14,8.73-10.07,14.67-3.82,8.38,8.82,12.6,19.95,11.25,31.9-.87,7.65.73,13.35,5.31,19,8.23,10.19,7.62,21,1.42,31.9-2.93,5.14-5.29,10.54-8.59,15.54-5.85,8.87,2.14,23.51,13.34,25a35.3,35.3,0,0,0,12.47-.33c4.64-1,6.12,1.27,5.69,5.38-.94,9-4.23,16.74-11.19,23-7.7,6.93-16.1,12.15-26.44,13.85-7,1.15-13.3-.16-17.4-6.38-2.55-3.86-4.6-2.95-7.36-.56-5.55,4.8-11.44,8.81-19.25,9-12.52.33-21-6.29-28-15.69a39.57,39.57,0,0,1-1.24-45.69c5.7-8.59,13.1-10.67,22.84-6.71,3.79,1.54,7.73,5.83,11.92,1.32s4.45-9.89,2.6-15.45c-7.11-21.32-42.16-39.72-64.91-23.41-8.4,6-17.37,11.13-22.86,20.37-11.06,18.62-12.6,38.39-7.3,59,4.36,16.93,15.42,29.53,26.7,42.2a93.81,93.81,0,0,0,24.66,20.1c11.88,6.66,24.43,9.84,37.59,10.78,24.31,1.74,48.22.15,71.15-9.54,29.55-12.49,44-35.58,47.84-66.39,6.27-50.74,5.78-101.69,5.21-152.69-.31-27.91-.89-55.82-1.38-83.72q-.64-36.89-2.09-73.77c-.44-11-8-18.43-18.78-19.18a89.37,89.37,0,0,1-9.73-1.38c-7.33-1.33-10.1-6.83-7.12-13.77C254,.3,255.76,0,257.81,0Q293.43,0,329,0c4.27,0,5.44,2.87,6.33,6.28,3.95,15.07,7.73,30.18,12,45.16,8.57,30,14.15,60.66,22.1,90.78,4.87,18.47,10.84,36.69,14.81,55.34,5.48,25.79,11.94,51.32,18.95,76.69,6.73,24.34,11.43,49.14,17.79,73.54.87,3.35,2.08,6.61,3.41,10.76,2.88-3.27,3.2-6.47,4-9.5Q443,290.23,457.7,231.41q18.37-73.13,36.92-146.22c6.61-26.2,13.29-52.38,19.6-78.65,1.13-4.7,3.31-5.85,7.69-5.81C545,.92,568,.95,591.12.92c5.53,0,7.21,2.89,7.24,7.91s-.74,8.87-7,8.59c-8-.36-15.64.78-22.77,5.1-4.85,2.94-7,6.83-7.61,12.24-1.44,14-1.1,28-1.15,42-.06,15.32-.35,30.68-.32,46,0,25.63,2.64,51.07,14.8,74.68,6.56,12.74,16.86,16.64,29.75,16,16.78-.77,31.37-8.07,45-17.09,12.33-8.13,23.24-17.81,31.72-30.23,13.09-19.16.74-32.66-15.25-36.8-4.14-1.07-10.79-.48-10.75-5.35,0-4.52,6.22-6.72,10.84-8.19,18.63-5.94,34.13.29,47.47,13.1,3.07,2.95,3.85,7.82,3.78,12.34-.06,3.93,1.75,5.47,5.68,5.28,11.7-.56,21.78,3.86,31.34,10.18,8.34,5.52,16.89,1.68,18.76-8.17,1-5.16.95-10.83,8.07-11.85,5.75-.82,12.88,3.09,16.57,8.83,5.46,8.51,5.61,17.4,2.23,26.51-2.1,5.66-4,11.17-1.34,17.14a3.91,3.91,0,0,1,.21,2c-1.37,11.09,1.72,20.62,6.5,30.93,5.23,11.27,1.88,24.2-7.38,33.41-8.21,8.17-5.3,17.54-4.91,26.65.17,4.07,3.62,1.66,5.66,1.06,12-3.52,23.72-4,35.27,1.65,10.59,5.19,15.32,14.58,16.1,25.37,1.12,15.53.8,31.17,1,46.77.07,7-1.11,7.56-11.77,7.91-5.87.19-6.82-3.06-6.88-7.92-.17-14.49.69-29-1.41-43.45-1-6.8-2.32-14-10.53-15.7-8.39-1.74-16-1.31-22.66,6.28-7.31,8.34-4,17.49-4.32,26.35s.24,17.57.61,26.35c.21,5-1.84,7.11-6.87,7.47-12.85.9-12.85,1.05-13-12q-.51-34.95-1-69.9c-.11-7.34-.62-7.64-7.54-6-14.93,3.56-29.17,1.55-42.72-5.55a21.87,21.87,0,0,1-4.84-3.4c-2.47-2.33-4.36-5.33-3.59-8.73s4.25-3.49,7-4a80.58,80.58,0,0,0,28.06-11c11.76-7.55,14.29-28.21,3.4-36.76a46.3,46.3,0,0,0-21.43-9.25c-13.78-2-27,.48-40.18,4.51-17.43,5.31-32.46,15.43-48.76,23-15.82,7.34-32,14.37-49.8,12.83-20.45-1.78-39.89-7.62-53.8-24.18-9.78-11.64-13.78-26-17.4-40.58-6-24.39-6.44-49.15-6.71-74C514.4,97,515.53,94.72,513.37,92.74Z"/><path class="cls-1" d="M548.45,322.28c0,11.2-.11,22.4,0,33.59.07,5-1.85,7.7-7,7-4.57-.65-10,3.45-13.74-2.71-1-1.61-3.22.24-4.77.89-12.24,5.09-24.32,4.39-36.45-.53-8.31-3.37-12.81-9.6-14.55-18.06-3.14-15.22-1.54-30.63-1.76-46,0-1.32.15-2.64.12-4-.33-11.78-.31-11.81,11.15-12.37,6.58-.32,8.18,1.18,8.26,8.47.14,12.74.09,25.49.11,38.23,0,.66,0,1.32,0,2,.17,12.51,6.48,19.85,16.94,19.74,13.34-.15,21.62-7.92,21.64-20.44,0-13.4-.16-26.81-.06-40.21.05-6.93,1.51-7.61,12.52-7.89,5.82-.15,7.05,3.26,7.05,8q0,17.13,0,34.26Z"/><path class="cls-1" d="M559.72,322c0-10.33-.14-20.67.08-31,.07-3.27-1.72-8.15,2.49-9.35,4.84-1.37,10.71-3.26,15.18.33,2.77,2.23,4.37,1.37,6.86.56,13.27-4.3,26.26-4.64,38.67,3a22.66,22.66,0,0,1,11.17,17c2.36,18.61,1.13,37.33,1.25,56,0,6.88-6,5-10,5.3s-7.34-.74-7.38-6c-.13-14.28.35-28.57-.89-42.84-.85-9.75-5.31-16.8-12.14-18.54-8.84-2.26-20.51,2.76-25.21,10.66-1.13,1.89-1,3.8-.94,5.73.1,14.28.3,28.56.37,42.84,0,7.19-1.16,7.89-12.88,8.39-5.63.24-6.37-3.4-6.35-7.79,0-11.43,0-22.86,0-34.29Z"/><path class="cls-1" d="M726.91,280.51c9.72-.33,20.92,1.16,31.11,7.2,3.33,2,7.64,3.59,4.79,8.89-3.74,6.95-9.35,10-14,7.21a42.2,42.2,0,0,0-19.23-5.8c-11.24-.85-19.38,5-27.23,11.29-6.87,5.55-7.38,17.72-1.81,24.62,12.23,15.15,27.48,18.66,45.22,10.4,8.36-3.89,13.87-2.14,18.75,6.11,2.87,4.85-1,7.6-4.21,8.58-15.25,4.71-30.27,9.43-46.91,4.38-11.89-3.61-21.18-8.36-28.11-19.42-16.71-26.71-.32-58.34,31.17-62.76C719.32,280.82,722.19,280.82,726.91,280.51Z"/><path class="cls-1" d="M649.09,323.07c0-11.42-.09-22.85,0-34.27.07-7.15.89-7.25,10.33-7.85,6-.38,7.85,2,7.9,7.47.23,22.19.68,44.37.88,66.56.07,7.39-9.6,12.49-16,8.7-2.56-1.52-2.5-3.88-2.49-6.33q0-17.14,0-34.27Z"/><path class="cls-1" d="M669,262.66c-.05,3-8.44,13.25-10.68,13.08-2.87-.22-12.07-10.13-12.09-13,0-2.17,8.82-11.48,10.95-11.53C659.57,251.1,669,260.31,669,262.66Z"/><path class="cls-1" d="M479.75,390.37h28.64q3.39,0,3.39,5V403q0,4.95-3.39,4.95H494a3.47,3.47,0,0,1-.09.34,31.9,31.9,0,0,1-1.23,4.06H514q1,.07,1.18,1.65-.14,1.58-1.18,1.72H500.62a13.17,13.17,0,0,0,1.93,2.54,20.89,20.89,0,0,0,4.66,3.64,48.8,48.8,0,0,0,8.52,3.92,2.51,2.51,0,0,1,.75,2,1.77,1.77,0,0,1-1.27,1.58,6.17,6.17,0,0,1-1.18-.27,44.11,44.11,0,0,1-8.61-4.74,22.26,22.26,0,0,1-4.66-4.26,19.49,19.49,0,0,1-2.64-4.33v-.07H491.2l0,.07a26.16,26.16,0,0,1-6,7.63,27.43,27.43,0,0,1-6.22,3.78,29.18,29.18,0,0,1-5.6,2.34.86.86,0,0,1-.52.14q-1.18-.21-1.32-1.86a1.54,1.54,0,0,1,1.13-1.44,30.72,30.72,0,0,0,6-2.27,28.54,28.54,0,0,0,5.7-3.57,21.52,21.52,0,0,0,4.1-4.81H474.48q-1.08-.14-1.13-1.72t1.13-1.65h15.63a34.9,34.9,0,0,0,1.51-4.4H479.75q-3.39,0-3.39-4.95v-7.63Q476.36,390.37,479.75,390.37Zm34.47-8q1.08.07,1.13,1.72t-1.13,1.58H503.17v2.75Q503,390,502,390.1q-1.27-.07-1.32-1.65V385.7H487.32v2.75q0,1.58-1.15,1.65-1.29-.07-1.34-1.65V385.7h-11.1q-1.08-.07-1.13-1.58t1.13-1.72h11.1v-2.47q0-1.58,1.34-1.65,1.1.07,1.15,1.65v2.47h13.36v-2.2q0-1.58,1.32-1.65,1,.07,1.18,1.65v2.2Zm-30.1,45.71q1,.14,1.13,1.58a6.86,6.86,0,0,1-.14,1.17,31.43,31.43,0,0,1-4.09,6.46,34.79,34.79,0,0,1-5.17,5.09,3.65,3.65,0,0,1-.94.27,2.6,2.6,0,0,1-1.13-1.44,2.11,2.11,0,0,1,.56-1.58q1.69-1.37,3-2.61a22.26,22.26,0,0,0,2.92-3.3,28.14,28.14,0,0,0,2.73-4.61Q483.28,428.11,484.12,428.11Zm-5.27-30.59h30.43v-1.37q0-2.75-1.88-2.75H480.73q-1.88,0-1.88,2.75Zm28.55,7.42q1.88,0,1.88-2.75v-1.65H478.86v1.65q0,2.75,1.88,2.75Zm-15,16.22q1.29.07,1.34,1.65v14.3q0,6-4.19,6-1.55,0-5.08-1.92a1.71,1.71,0,0,1-.75-1.37q0-2.06,1.13-2.2a1.38,1.38,0,0,1,.66.27q3.06,1.72,4,1.72,1.69,0,1.69-2.54v-14.3Q491.27,421.24,492.38,421.17Zm6.42,6.39a1.42,1.42,0,0,1,1.13.76A82.7,82.7,0,0,1,503.17,439a9.5,9.5,0,0,1,.14,1.37,1.39,1.39,0,0,1-1.32,1.37q-.56,0-.94-.82a63.68,63.68,0,0,0-3-10.38,7.12,7.12,0,0,1-.38-1.44Q497.76,427.7,498.8,427.56Zm7.15.76a1.29,1.29,0,0,1,.94.55q2.4,3,4,5.29,1.6,2.61,3.39,6a5.19,5.19,0,0,1,.19,1.37q-.14,1.24-1.13,1.37-.61,0-.94-.76a52.89,52.89,0,0,0-3.15-5.57q-1.46-2.27-3.81-5.22a3.14,3.14,0,0,1-.56-1.65A1.57,1.57,0,0,1,505.95,428.32Z"/><path class="cls-1" d="M526.83,400.82v8.8a134.21,134.21,0,0,1-1.49,18.49,102.77,102.77,0,0,1-3.45,13.4,1.33,1.33,0,0,1-1.32,1.17q-1.08-.14-1.13-2a121.47,121.47,0,0,0,3.81-15.47,138.65,138.65,0,0,0,1.08-15.6V388.17q0-6.6,4.52-6.6h28.63q3.39,0,3.39,5v9.28q0,4.95-3.39,4.95Zm18.79-15.95H529.08q-2.25,0-2.25,3.3v9.35H556.7q1.69,0,1.69-2.47v-7.7q0-2.47-1.69-2.47Zm15.08,22.62a1.25,1.25,0,0,1,1.13,1.31,4.56,4.56,0,0,1-.19,1.44,54.21,54.21,0,0,1-7,5.09,61.76,61.76,0,0,1-7.43,4.19,77.12,77.12,0,0,1-11.29,4.54l-.61.14V436q0,3.64,2.45,3.64h17.5a5.47,5.47,0,0,0,4.66-2.2q1.32-1.31,1.55-11.62,0-1.58,1.32-1.65,1.08.07,1.13,2.2,0,3.57-.38,7.91t-2.4,6.39a8.07,8.07,0,0,1-5.88,2.2H537.55q-4.75,0-4.75-6.87V408.25q0-1.58,1.34-1.65,1.05.07,1.15,1.65v12.58a73.41,73.41,0,0,0,10-3.85,71,71,0,0,0,6.35-3.3,59.82,59.82,0,0,0,8.09-5.71A1.81,1.81,0,0,1,560.69,407.49Z"/><path class="cls-1" d="M575.56,428.11q1.18.14,1.32,1.58a5.23,5.23,0,0,1-.19,1.17,32.69,32.69,0,0,1-2.45,5.29,55.33,55.33,0,0,1-3.57,6,1.64,1.64,0,0,1-1.13.55,1.9,1.9,0,0,1-1.13-1.72q0-1,.38-1.31a51.31,51.31,0,0,0,5.64-10.24Q574.85,428.11,575.56,428.11Zm-.18-47h29.91q3.58,0,3.58,5.16v13.2q0,5.22-3.57,5.22H591.55v6.6H607q1.08.07,1.13,1.72T607,414.57H591.55v8h19.19q1.08.07,1.13,1.65t-1.13,1.65H570.43q-1.08-.07-1.08-1.65t1.08-1.65h18.63v-8H573.82q-1.08-.07-1.13-1.58t1.13-1.72h15.24v-6.6H575.37q-3.62,0-3.62-5.22v-13.2Q571.75,381.09,575.37,381.09Zm13.68,20.35V384.33H576.11q-1.88,0-1.88,2.75v11.62q0,2.75,1.88,2.75Zm-10.49-14.09a1.29,1.29,0,0,1,.94.55q1.79,2.13,2.92,3.71,1.22,1.86,2.54,4.26a5.19,5.19,0,0,1,.19,1.37,1.45,1.45,0,0,1-1.13,1.44q-.66,0-.94-.89a41.47,41.47,0,0,0-2.3-3.85q-1-1.51-2.77-3.57a3.14,3.14,0,0,1-.56-1.65A1.66,1.66,0,0,1,578.57,387.35Zm6.21,41.79q.66,0,.94,1.1a39.21,39.21,0,0,1,1.6,7.49q.28,2.27.28,3,0,1.86-1.13,2-1-.21-1.13-2-.24-3.09-.56-5a38,38,0,0,0-.94-4.06,2.88,2.88,0,0,1-.19-.76Q583.79,429.28,584.77,429.14Zm19.71-27.7q1.88,0,1.88-2.75V387.07q0-2.75-1.88-2.75H591.55v17.12Zm-9.18,27.7q.61,0,1.13.82a67.18,67.18,0,0,1,3.2,9.9,7.22,7.22,0,0,1,.19,1.37,1.49,1.49,0,0,1-1.32,1.44q-.56,0-.94-.89a55.27,55.27,0,0,0-3-9.62,6.45,6.45,0,0,1-.38-1.31Q594.27,429.28,595.31,429.14Zm6-41.79a1.47,1.47,0,0,1,1.13,1.37,3.15,3.15,0,0,1-.38,1.65,38.62,38.62,0,0,1-5.08,7.77,1.93,1.93,0,0,1-.94.55q-1-.21-1.13-1.72a2.1,2.1,0,0,1,.56-1.31,38.44,38.44,0,0,0,4.7-7.49A1.27,1.27,0,0,1,601.33,387.35Zm5.46,40.76a1.52,1.52,0,0,1,1.13.76,68.72,68.72,0,0,1,4.33,11.27,7.22,7.22,0,0,1,.19,1.37,1.39,1.39,0,0,1-1.32,1.37q-.56,0-.94-.76A60.18,60.18,0,0,0,606,431.07a6.07,6.07,0,0,1-.38-1.37Q605.8,428.25,606.79,428.11Z"/><path class="cls-1" d="M631.43,383.57q1.08.07,1.13,1.58t-1.13,1.72h-4.89v40.69l.8-.69a30.9,30.9,0,0,0,5.6-4.61,1,1,0,0,1,.75-.48q1,0,1.13,1.31a4,4,0,0,1-.56,2.2,44.47,44.47,0,0,1-6.91,5.5,60.81,60.81,0,0,1-9.12,4.95,3.32,3.32,0,0,1-1.13.27q-.89-.14-.94-1.37,0-1.51.94-1.92,4.19-2.06,7-3.71V386.87h-6.21q-1.08-.14-1.13-1.72t1.13-1.58Zm27.66,0q1.08.07,1.13,1.58t-1.13,1.72H643.57l-4.23,16.43q0,2.75,1.88,2.75h13.55q3.76,0,3.76,5.5l-.66,16.84q-.19,8.59-2.26,11.62a7.34,7.34,0,0,1-6.49,3.16,24.7,24.7,0,0,1-5.31-.69,48.41,48.41,0,0,1-7.85-3.71,1.56,1.56,0,0,1-.75-1.37q0-2.06.94-2.2a2.41,2.41,0,0,1,.71.21,34.06,34.06,0,0,0,7.53,3.3,13.19,13.19,0,0,0,4.75,1,5.26,5.26,0,0,0,4.8-2.61q1.51-2.54,1.65-11.48l.52-13.2q0-3-2.07-3H640.27q-3.39,0-3.39-4.88l4.28-17.6h-6.35q-1.08-.14-1.13-1.72t1.13-1.58Z"/><path class="cls-1" d="M707.25,386.59q1.08.07,1.13,1.58t-1.13,1.72H688.06v8.25h11.85q3.76,0,3.76,5.43v10.17q0,5.57-3.76,5.57H693.7v16.43q0,2.75,1.88,2.75h5.83a3.93,3.93,0,0,0,3.39-1.72q1-1.1,1.13-9.55,0-1.58,1.32-1.65,1.08.14,1.13,2.27,0,3-.33,6.6-.28,3.85-1.88,5.5a6.39,6.39,0,0,1-4.75,1.86h-6.77q-3.43,0-3.43-4.88v-17.6H681.8a41.93,41.93,0,0,1-.89,9,21,21,0,0,1-2.26,5.57,16.36,16.36,0,0,1-4.52,4.74,44.21,44.21,0,0,1-6.82,3.78,4.69,4.69,0,0,1-1.32.27,2,2,0,0,1-1.13-1.72,2.47,2.47,0,0,1,.94-2.2,34.51,34.51,0,0,0,6.16-3,15.68,15.68,0,0,0,3.72-3.09,14,14,0,0,0,2.63-4.95,30.31,30.31,0,0,0,1-8.39h-4.89q-3.76,0-3.76-5.57V403.57q0-5.43,3.76-5.43h11.1v-8.25H666.19q-1.08-.14-1.13-1.72t1.13-1.58h19.38v-5.77q0-1.65,1.15-1.72,1.29.07,1.34,1.72v5.77ZM699.3,416q1.88,0,1.88-2.75v-9.07q0-2.75-1.88-2.75H675.08q-1.88,0-1.88,2.75v9.07q0,2.75,1.88,2.75Z"/><path class="cls-1" d="M733.21,379.1q1.32,0,1.32,1.72,0,5.64-.19,10.65h15.8q4,0,4,5.77L754,426.12q-.19,9.21-2.12,12.72a6.62,6.62,0,0,1-6.07,3.57q-4.33,0-11.66-2.75a2,2,0,0,1-.75-1.72q.09-1.79,1.13-1.92a2.37,2.37,0,0,1,1.13.27q7.34,2.47,10.16,2.47a4.41,4.41,0,0,0,4.37-3.23,24.2,24.2,0,0,0,1.18-8.66l.28-29.08q0-3-2.07-3H734.2q-.33,5.36-.85,10a96.38,96.38,0,0,1-2.92,14.92,44.72,44.72,0,0,1-5.88,12.79,56.14,56.14,0,0,1-8.84,9.9,4.69,4.69,0,0,1-1.32.27,1.9,1.9,0,0,1-1.13-1.72,2.47,2.47,0,0,1,.94-2.2,46.6,46.6,0,0,0,8.09-8.87,42.45,42.45,0,0,0,4.89-9.28,68.69,68.69,0,0,0,3.48-14.92q.66-5,1-10.93H718q-1.08-.21-1.13-1.65t1.13-1.65h13.87q.24-5,.24-10.65Q732.18,379.24,733.21,379.1Z"/><path class="cls-1" d="M801.32,387.07q1.08.14,1.13,2,0,1.61-1.13,1.68H784.38v44.2H803.2q1.08.07,1.13,2,0,1.54-1.13,1.61H762.94q-1.08-.07-1.13-1.61,0-2,1.13-2h18.81v-44.2H765q-1.08-.07-1.13-1.68,0-1.82,1.13-2Z"/><path class="cls-1" d="M823,396.15q1,.07,1.13,1.65-.09,1.58-1.13,1.65h-5.08v24.88a33.51,33.51,0,0,0,4.52-5.57,1.29,1.29,0,0,1,.75-.62q1,.07,1.13,1.37a4.4,4.4,0,0,1-.56,2.27,46.61,46.61,0,0,1-5.6,6.6,51,51,0,0,1-7.43,6,3.68,3.68,0,0,1-1.13.27q-.89-.14-.94-1.31,0-1.58.94-2a70.26,70.26,0,0,0,5.83-4.67V399.45H810.3q-1.08-.07-1.13-1.65t1.13-1.65h5.08v-14.3q0-1.58,1.15-1.65t1.34,1.65v14.3Zm14.84-15.95q1.29.07,1.34,1.65v8h12.42q1.08.07,1.13,1.58t-1.13,1.65H834.29v11.07h13.87q3.76,0,3.76,5.43,0,10.17-.75,17.67-.85,9.42-2.82,12.24a6.86,6.86,0,0,1-5.83,3.37,22.85,22.85,0,0,1-8.65-2.2,1.76,1.76,0,0,1-1.13-1.65q.09-2.06,1.32-2.13a4.11,4.11,0,0,1,1.22.21q5.22,1.92,7.24,1.92a4,4,0,0,0,3.53-2q1.32-1.58,2.3-8.59a118.82,118.82,0,0,0,1.13-18.22q0-2.75-1.88-2.75H834.14a115.6,115.6,0,0,1-.89,11.89,47.24,47.24,0,0,1-4.75,15.05,41.34,41.34,0,0,1-5.55,7.7,1.53,1.53,0,0,1-1.13.55q-1.13-.34-1.32-2a2.85,2.85,0,0,1,.38-1.31,38.61,38.61,0,0,0,9.64-19.45,117.39,117.39,0,0,0,1.27-17.18v-9.62H825q-1.08-.07-1.13-1.65t1.13-1.58h11.62v-8Q836.68,380.27,837.79,380.2Z"/></svg>